# xmcd CD database file
#
# Track frame offsets:
#	150
#	14040
#	33430
#	46957
#
# Disc length: 881 seconds
#
# Revision: 0
# Processed by: cddbd v1.5.1PL0 Copyright (c) Steve Scherf et al.
# Submitted via: CDex 1.51
#
DISCID=2d036f04
DTITLE=Nokko - キスがきこえる
DYEAR=2000
DGENRE=Pop
TTITLE0=キスがきこえる
TTITLE1=I Love You
TTITLE2=キスがきこえる（オリジナル・カラオケ）
TTITLE3=I Love You（オリジナル・カラオケ）
EXTD=YEAR: 2000
EXTT0=
EXTT1=
EXTT2=
EXTT3=
PLAYORDER=
